<svg xmlns="http://www.w3.org/2000/svg" viewBox="0 0 512 512" width="512" height="512">
  <defs>
    <linearGradient id="bg" x1="0%" y1="0%" x2="100%" y2="100%">
      <stop offset="0%" style="stop-color:#6366f1"/>
      <stop offset="50%" style="stop-color:#7c3aed"/>
      <stop offset="100%" style="stop-color:#a855f7"/>
    </linearGradient>
    <linearGradient id="body" x1="0%" y1="0%" x2="100%" y2="100%">
      <stop offset="0%" style="stop-color:#f1f5f9"/>
      <stop offset="100%" style="stop-color:#e2e8f0"/>
    </linearGradient>
    <filter id="softShadow">
      <feDropShadow dx="0" dy="4" stdDeviation="8" flood-color="#000" flood-opacity="0.25"/>
    </filter>
  </defs>
  <rect width="512" height="512" rx="120" fill="url(#bg)"/>
  <g filter="url(#softShadow)">
    <rect x="120" y="140" width="272" height="180" rx="40" fill="url(#body)"/>
  </g>
  <line x1="220" y1="140" x2="220" y2="70" stroke="#a78bfa" stroke-width="10" stroke-linecap="round"/>
  <line x1="292" y1="140" x2="292" y2="70" stroke="#a78bfa" stroke-width="10" stroke-linecap="round"/>
  <circle cx="220" cy="60" r="12" fill="#c4b5fd"/>
  <circle cx="292" cy="60" r="12" fill="#c4b5fd"/>
  <ellipse cx="200" cy="210" rx="24" ry="28" fill="#1e293b"/>
  <ellipse cx="312" cy="210" rx="24" ry="28" fill="#1e293b"/>
  <circle cx="208" cy="202" r="8" fill="white" opacity="0.9"/>
  <circle cx="320" cy="202" r="8" fill="white" opacity="0.9"/>
  <path d="M 210 255 Q 256 290 302 255" fill="none" stroke="#64748b" stroke-width="8" stroke-linecap="round"/>
  <rect x="100" y="195" width="28" height="70" rx="14" fill="#4f46e5" opacity="0.6"/>
  <rect x="384" y="195" width="28" height="70" rx="14" fill="#4f46e5" opacity="0.6"/>
  <circle cx="220" cy="360" r="8" fill="#22c55e" opacity="0.7"/>
  <circle cx="256" cy="360" r="8" fill="#3b82f6" opacity="0.7"/>
  <circle cx="292" cy="360" r="8" fill="#f59e0b" opacity="0.7"/>
</svg>
